<mxfile host="Electron" modified="2024-03-14T02:45:05.354Z" agent="Mozilla/5.0 (Windows NT 10.0; Win64; x64) AppleWebKit/537.36 (KHTML, like Gecko) draw.io/23.1.5 Chrome/120.0.6099.109 Electron/28.1.0 Safari/537.36" etag="mUyW0SQ2e6VXXfeqWKIt" version="23.1.5" type="device" pages="2">
  <diagram name="Overall Arch" id="rCtOtezaTWQqr_uW0gEQ">
    <mxGraphModel dx="1933" dy="1341" grid="1" gridSize="10" guides="1" tooltips="1" connect="1" arrows="1" fold="1" page="1" pageScale="1" pageWidth="850" pageHeight="1100" math="0" shadow="0">
      <root>
        <mxCell id="0" />
        <mxCell id="1" parent="0" />
        <mxCell id="nVabqXmZLqYOsDau8CkH-4" style="rounded=0;orthogonalLoop=1;jettySize=auto;html=1;startArrow=classic;startFill=1;fillColor=#f8cecc;strokeColor=#b85450;" parent="1" source="nVabqXmZLqYOsDau8CkH-1" target="nVabqXmZLqYOsDau8CkH-3" edge="1">
          <mxGeometry relative="1" as="geometry" />
        </mxCell>
        <mxCell id="nVabqXmZLqYOsDau8CkH-19" value="SSL" style="edgeLabel;html=1;align=center;verticalAlign=middle;resizable=0;points=[];" parent="nVabqXmZLqYOsDau8CkH-4" vertex="1" connectable="0">
          <mxGeometry x="0.2236" y="-1" relative="1" as="geometry">
            <mxPoint as="offset" />
          </mxGeometry>
        </mxCell>
        <mxCell id="nVabqXmZLqYOsDau8CkH-1" value="Controller" style="ellipse;whiteSpace=wrap;html=1;aspect=fixed;fillColor=#ffe6cc;strokeColor=#d79b00;" parent="1" vertex="1">
          <mxGeometry x="320" y="360" width="80" height="80" as="geometry" />
        </mxCell>
        <mxCell id="nVabqXmZLqYOsDau8CkH-2" value="Database" style="shape=cylinder3;whiteSpace=wrap;html=1;boundedLbl=1;backgroundOutline=1;size=15;fillColor=#fff2cc;strokeColor=#d6b656;" parent="1" vertex="1">
          <mxGeometry x="400" y="600" width="80" height="80" as="geometry" />
        </mxCell>
        <mxCell id="nVabqXmZLqYOsDau8CkH-3" value="Command UI" style="image;aspect=fixed;html=1;points=[];align=center;fontSize=12;image=img/lib/azure2/preview/Azure_Cloud_Shell.svg;" parent="1" vertex="1">
          <mxGeometry x="200" y="280" width="68" height="48" as="geometry" />
        </mxCell>
        <mxCell id="nVabqXmZLqYOsDau8CkH-5" style="rounded=0;orthogonalLoop=1;jettySize=auto;html=1;startArrow=classic;startFill=1;" parent="1" source="nVabqXmZLqYOsDau8CkH-2" target="nVabqXmZLqYOsDau8CkH-8" edge="1">
          <mxGeometry relative="1" as="geometry">
            <mxPoint x="209" y="466" as="sourcePoint" />
            <mxPoint x="180" y="418" as="targetPoint" />
          </mxGeometry>
        </mxCell>
        <mxCell id="nVabqXmZLqYOsDau8CkH-6" value="DRC Engine" style="ellipse;whiteSpace=wrap;html=1;aspect=fixed;fillColor=#e1d5e7;strokeColor=#9673a6;" parent="1" vertex="1">
          <mxGeometry x="480" y="520" width="80" height="80" as="geometry" />
        </mxCell>
        <mxCell id="nVabqXmZLqYOsDau8CkH-7" value="Timing Engine" style="ellipse;whiteSpace=wrap;html=1;aspect=fixed;fillColor=#e1d5e7;strokeColor=#9673a6;" parent="1" vertex="1">
          <mxGeometry x="480" y="360" width="80" height="80" as="geometry" />
        </mxCell>
        <mxCell id="nVabqXmZLqYOsDau8CkH-8" value="Core" style="ellipse;whiteSpace=wrap;html=1;aspect=fixed;fillColor=#f8cecc;strokeColor=#b85450;" parent="1" vertex="1">
          <mxGeometry x="400" y="440" width="80" height="80" as="geometry" />
        </mxCell>
        <mxCell id="nVabqXmZLqYOsDau8CkH-9" style="rounded=0;orthogonalLoop=1;jettySize=auto;html=1;startArrow=classic;startFill=1;" parent="1" source="nVabqXmZLqYOsDau8CkH-1" target="nVabqXmZLqYOsDau8CkH-8" edge="1">
          <mxGeometry relative="1" as="geometry">
            <mxPoint x="410" y="610" as="sourcePoint" />
            <mxPoint x="410" y="530" as="targetPoint" />
          </mxGeometry>
        </mxCell>
        <mxCell id="nVabqXmZLqYOsDau8CkH-10" style="rounded=0;orthogonalLoop=1;jettySize=auto;html=1;startArrow=classic;startFill=1;" parent="1" source="nVabqXmZLqYOsDau8CkH-8" target="nVabqXmZLqYOsDau8CkH-7" edge="1">
          <mxGeometry relative="1" as="geometry">
            <mxPoint x="370" y="490" as="sourcePoint" />
            <mxPoint x="410" y="490" as="targetPoint" />
          </mxGeometry>
        </mxCell>
        <mxCell id="nVabqXmZLqYOsDau8CkH-11" style="rounded=0;orthogonalLoop=1;jettySize=auto;html=1;startArrow=classic;startFill=1;" parent="1" source="nVabqXmZLqYOsDau8CkH-8" target="nVabqXmZLqYOsDau8CkH-6" edge="1">
          <mxGeometry relative="1" as="geometry">
            <mxPoint x="478" y="462" as="sourcePoint" />
            <mxPoint x="502" y="438" as="targetPoint" />
            <Array as="points">
              <mxPoint x="480" y="520" />
            </Array>
          </mxGeometry>
        </mxCell>
        <mxCell id="nVabqXmZLqYOsDau8CkH-12" value="Graphical UI" style="shape=process;whiteSpace=wrap;html=1;backgroundOutline=1;fillColor=#d5e8d4;strokeColor=#82b366;" parent="1" vertex="1">
          <mxGeometry x="320" y="240" width="80" height="40" as="geometry" />
        </mxCell>
        <mxCell id="nVabqXmZLqYOsDau8CkH-13" style="rounded=0;orthogonalLoop=1;jettySize=auto;html=1;startArrow=classic;startFill=1;fillColor=#f8cecc;strokeColor=#b85450;" parent="1" source="nVabqXmZLqYOsDau8CkH-1" target="nVabqXmZLqYOsDau8CkH-12" edge="1">
          <mxGeometry relative="1" as="geometry">
            <mxPoint x="338" y="386" as="sourcePoint" />
            <mxPoint x="276" y="338" as="targetPoint" />
          </mxGeometry>
        </mxCell>
        <mxCell id="nVabqXmZLqYOsDau8CkH-18" value="SSL" style="edgeLabel;html=1;align=center;verticalAlign=middle;resizable=0;points=[];" parent="nVabqXmZLqYOsDau8CkH-13" vertex="1" connectable="0">
          <mxGeometry x="0.1083" y="1" relative="1" as="geometry">
            <mxPoint as="offset" />
          </mxGeometry>
        </mxCell>
        <mxCell id="nVabqXmZLqYOsDau8CkH-14" value="Report Engine" style="ellipse;whiteSpace=wrap;html=1;aspect=fixed;fillColor=#dae8fc;strokeColor=#6c8ebf;" parent="1" vertex="1">
          <mxGeometry x="520" y="440" width="80" height="80" as="geometry" />
        </mxCell>
        <mxCell id="nVabqXmZLqYOsDau8CkH-15" style="rounded=0;orthogonalLoop=1;jettySize=auto;html=1;startArrow=classic;startFill=1;" parent="1" source="nVabqXmZLqYOsDau8CkH-8" target="nVabqXmZLqYOsDau8CkH-14" edge="1">
          <mxGeometry relative="1" as="geometry">
            <mxPoint x="478" y="462" as="sourcePoint" />
            <mxPoint x="502" y="438" as="targetPoint" />
          </mxGeometry>
        </mxCell>
        <mxCell id="nVabqXmZLqYOsDau8CkH-16" value="Physical Engine" style="ellipse;whiteSpace=wrap;html=1;aspect=fixed;fillColor=#e1d5e7;strokeColor=#9673a6;" parent="1" vertex="1">
          <mxGeometry x="320" y="520" width="80" height="80" as="geometry" />
        </mxCell>
        <mxCell id="nVabqXmZLqYOsDau8CkH-17" style="rounded=0;orthogonalLoop=1;jettySize=auto;html=1;startArrow=classic;startFill=1;" parent="1" source="nVabqXmZLqYOsDau8CkH-8" target="nVabqXmZLqYOsDau8CkH-16" edge="1">
          <mxGeometry relative="1" as="geometry">
            <mxPoint x="478" y="518" as="sourcePoint" />
            <mxPoint x="502" y="542" as="targetPoint" />
          </mxGeometry>
        </mxCell>
      </root>
    </mxGraphModel>
  </diagram>
  <diagram id="hEpuhImXjstiXh32rje0" name="Balaji">
    <mxGraphModel dx="1933" dy="1341" grid="1" gridSize="10" guides="1" tooltips="1" connect="1" arrows="1" fold="1" page="1" pageScale="1" pageWidth="850" pageHeight="1100" math="0" shadow="0">
      <root>
        <mxCell id="0" />
        <mxCell id="1" parent="0" />
        <mxCell id="_TaFdi0sFe0lA9Lu7QkW-12" style="edgeStyle=orthogonalEdgeStyle;rounded=0;orthogonalLoop=1;jettySize=auto;html=1;" edge="1" parent="1" source="_TaFdi0sFe0lA9Lu7QkW-2" target="_TaFdi0sFe0lA9Lu7QkW-8">
          <mxGeometry relative="1" as="geometry" />
        </mxCell>
        <mxCell id="_TaFdi0sFe0lA9Lu7QkW-2" value="Sample flow" style="swimlane;whiteSpace=wrap;html=1;fillColor=#d5e8d4;strokeColor=#82b366;" vertex="1" parent="1">
          <mxGeometry x="240" y="120" width="160" height="440" as="geometry" />
        </mxCell>
        <mxCell id="_TaFdi0sFe0lA9Lu7QkW-3" style="edgeStyle=orthogonalEdgeStyle;rounded=0;orthogonalLoop=1;jettySize=auto;html=1;" edge="1" parent="_TaFdi0sFe0lA9Lu7QkW-2" source="QHXtvjfyBvFeIwCfhDwU-13" target="QHXtvjfyBvFeIwCfhDwU-14">
          <mxGeometry relative="1" as="geometry" />
        </mxCell>
        <mxCell id="QHXtvjfyBvFeIwCfhDwU-13" value="syn" style="shape=process;whiteSpace=wrap;html=1;backgroundOutline=1;fillColor=#d5e8d4;strokeColor=#82b366;" parent="_TaFdi0sFe0lA9Lu7QkW-2" vertex="1">
          <mxGeometry x="40" y="40" width="80" height="40" as="geometry" />
        </mxCell>
        <mxCell id="_TaFdi0sFe0lA9Lu7QkW-4" style="edgeStyle=orthogonalEdgeStyle;rounded=0;orthogonalLoop=1;jettySize=auto;html=1;" edge="1" parent="_TaFdi0sFe0lA9Lu7QkW-2" source="QHXtvjfyBvFeIwCfhDwU-14" target="QHXtvjfyBvFeIwCfhDwU-15">
          <mxGeometry relative="1" as="geometry" />
        </mxCell>
        <mxCell id="QHXtvjfyBvFeIwCfhDwU-14" value="plan" style="shape=process;whiteSpace=wrap;html=1;backgroundOutline=1;fillColor=#d5e8d4;strokeColor=#82b366;" parent="_TaFdi0sFe0lA9Lu7QkW-2" vertex="1">
          <mxGeometry x="40" y="120" width="80" height="40" as="geometry" />
        </mxCell>
        <mxCell id="_TaFdi0sFe0lA9Lu7QkW-5" style="edgeStyle=orthogonalEdgeStyle;rounded=0;orthogonalLoop=1;jettySize=auto;html=1;exitX=0.5;exitY=1;exitDx=0;exitDy=0;" edge="1" parent="_TaFdi0sFe0lA9Lu7QkW-2" source="QHXtvjfyBvFeIwCfhDwU-15" target="QHXtvjfyBvFeIwCfhDwU-16">
          <mxGeometry relative="1" as="geometry" />
        </mxCell>
        <mxCell id="QHXtvjfyBvFeIwCfhDwU-15" value="cts-opt" style="shape=process;whiteSpace=wrap;html=1;backgroundOutline=1;fillColor=#d5e8d4;strokeColor=#82b366;" parent="_TaFdi0sFe0lA9Lu7QkW-2" vertex="1">
          <mxGeometry x="40" y="200" width="80" height="40" as="geometry" />
        </mxCell>
        <mxCell id="_TaFdi0sFe0lA9Lu7QkW-6" style="edgeStyle=orthogonalEdgeStyle;rounded=0;orthogonalLoop=1;jettySize=auto;html=1;" edge="1" parent="_TaFdi0sFe0lA9Lu7QkW-2" source="QHXtvjfyBvFeIwCfhDwU-16" target="QHXtvjfyBvFeIwCfhDwU-17">
          <mxGeometry relative="1" as="geometry" />
        </mxCell>
        <mxCell id="QHXtvjfyBvFeIwCfhDwU-16" value="route-opt" style="shape=process;whiteSpace=wrap;html=1;backgroundOutline=1;fillColor=#d5e8d4;strokeColor=#82b366;" parent="_TaFdi0sFe0lA9Lu7QkW-2" vertex="1">
          <mxGeometry x="40" y="280" width="80" height="40" as="geometry" />
        </mxCell>
        <mxCell id="QHXtvjfyBvFeIwCfhDwU-17" value="sign-opt" style="shape=process;whiteSpace=wrap;html=1;backgroundOutline=1;fillColor=#d5e8d4;strokeColor=#82b366;" parent="_TaFdi0sFe0lA9Lu7QkW-2" vertex="1">
          <mxGeometry x="40" y="360" width="80" height="40" as="geometry" />
        </mxCell>
        <mxCell id="_TaFdi0sFe0lA9Lu7QkW-7" style="edgeStyle=orthogonalEdgeStyle;rounded=0;orthogonalLoop=1;jettySize=auto;html=1;exitX=0.5;exitY=1;exitDx=0;exitDy=0;" edge="1" parent="_TaFdi0sFe0lA9Lu7QkW-2" source="QHXtvjfyBvFeIwCfhDwU-15" target="QHXtvjfyBvFeIwCfhDwU-15">
          <mxGeometry relative="1" as="geometry" />
        </mxCell>
        <mxCell id="_TaFdi0sFe0lA9Lu7QkW-16" style="edgeStyle=orthogonalEdgeStyle;rounded=0;orthogonalLoop=1;jettySize=auto;html=1;" edge="1" parent="1" source="_TaFdi0sFe0lA9Lu7QkW-8" target="_TaFdi0sFe0lA9Lu7QkW-14">
          <mxGeometry relative="1" as="geometry" />
        </mxCell>
        <mxCell id="_TaFdi0sFe0lA9Lu7QkW-8" value="Reports" style="swimlane;whiteSpace=wrap;html=1;fillColor=#dae8fc;strokeColor=#6c8ebf;" vertex="1" parent="1">
          <mxGeometry x="240" y="600" width="160" height="160" as="geometry" />
        </mxCell>
        <mxCell id="QHXtvjfyBvFeIwCfhDwU-22" value="report_timing" style="shape=document;whiteSpace=wrap;html=1;boundedLbl=1;fillColor=#dae8fc;strokeColor=#6c8ebf;" parent="_TaFdi0sFe0lA9Lu7QkW-8" vertex="1">
          <mxGeometry x="40" y="40" width="80" height="40" as="geometry" />
        </mxCell>
        <mxCell id="_TaFdi0sFe0lA9Lu7QkW-1" value="report_*" style="shape=document;whiteSpace=wrap;html=1;boundedLbl=1;fillColor=#dae8fc;strokeColor=#6c8ebf;" vertex="1" parent="_TaFdi0sFe0lA9Lu7QkW-8">
          <mxGeometry x="40" y="100" width="80" height="40" as="geometry" />
        </mxCell>
        <mxCell id="_TaFdi0sFe0lA9Lu7QkW-11" style="edgeStyle=orthogonalEdgeStyle;rounded=0;orthogonalLoop=1;jettySize=auto;html=1;" edge="1" parent="1" source="_TaFdi0sFe0lA9Lu7QkW-9" target="_TaFdi0sFe0lA9Lu7QkW-2">
          <mxGeometry relative="1" as="geometry" />
        </mxCell>
        <mxCell id="_TaFdi0sFe0lA9Lu7QkW-17" style="edgeStyle=orthogonalEdgeStyle;rounded=0;orthogonalLoop=1;jettySize=auto;html=1;" edge="1" parent="1" source="_TaFdi0sFe0lA9Lu7QkW-9" target="_TaFdi0sFe0lA9Lu7QkW-14">
          <mxGeometry relative="1" as="geometry">
            <Array as="points">
              <mxPoint x="120" y="800" />
              <mxPoint x="620" y="800" />
            </Array>
          </mxGeometry>
        </mxCell>
        <mxCell id="_TaFdi0sFe0lA9Lu7QkW-9" value="Check commands" style="swimlane;whiteSpace=wrap;html=1;fillColor=#e1d5e7;strokeColor=#9673a6;" vertex="1" parent="1">
          <mxGeometry x="40" y="220" width="160" height="240" as="geometry" />
        </mxCell>
        <mxCell id="QHXtvjfyBvFeIwCfhDwU-18" value="check_design" style="shape=document;whiteSpace=wrap;html=1;boundedLbl=1;fillColor=#e1d5e7;strokeColor=#9673a6;" parent="_TaFdi0sFe0lA9Lu7QkW-9" vertex="1">
          <mxGeometry x="40" y="40" width="80" height="40" as="geometry" />
        </mxCell>
        <mxCell id="QHXtvjfyBvFeIwCfhDwU-19" value="check_library" style="shape=document;whiteSpace=wrap;html=1;boundedLbl=1;fillColor=#e1d5e7;strokeColor=#9673a6;" parent="_TaFdi0sFe0lA9Lu7QkW-9" vertex="1">
          <mxGeometry x="40" y="90" width="80" height="40" as="geometry" />
        </mxCell>
        <mxCell id="QHXtvjfyBvFeIwCfhDwU-20" value="check_timing" style="shape=document;whiteSpace=wrap;html=1;boundedLbl=1;fillColor=#e1d5e7;strokeColor=#9673a6;" parent="_TaFdi0sFe0lA9Lu7QkW-9" vertex="1">
          <mxGeometry x="40" y="140" width="80" height="40" as="geometry" />
        </mxCell>
        <mxCell id="QHXtvjfyBvFeIwCfhDwU-21" value="check_*" style="shape=document;whiteSpace=wrap;html=1;boundedLbl=1;fillColor=#e1d5e7;strokeColor=#9673a6;" parent="_TaFdi0sFe0lA9Lu7QkW-9" vertex="1">
          <mxGeometry x="40" y="190" width="80" height="40" as="geometry" />
        </mxCell>
        <mxCell id="_TaFdi0sFe0lA9Lu7QkW-13" style="edgeStyle=orthogonalEdgeStyle;rounded=0;orthogonalLoop=1;jettySize=auto;html=1;" edge="1" parent="1" source="_TaFdi0sFe0lA9Lu7QkW-10" target="_TaFdi0sFe0lA9Lu7QkW-2">
          <mxGeometry relative="1" as="geometry" />
        </mxCell>
        <mxCell id="_TaFdi0sFe0lA9Lu7QkW-15" style="edgeStyle=orthogonalEdgeStyle;rounded=0;orthogonalLoop=1;jettySize=auto;html=1;" edge="1" parent="1" source="_TaFdi0sFe0lA9Lu7QkW-10" target="_TaFdi0sFe0lA9Lu7QkW-14">
          <mxGeometry relative="1" as="geometry" />
        </mxCell>
        <mxCell id="_TaFdi0sFe0lA9Lu7QkW-10" value="Data Input" style="swimlane;whiteSpace=wrap;html=1;fillColor=#f8cecc;strokeColor=#b85450;" vertex="1" parent="1">
          <mxGeometry x="440" y="80" width="360" height="520" as="geometry" />
        </mxCell>
        <mxCell id="QHXtvjfyBvFeIwCfhDwU-1" value="LEF/NDM" style="shape=cylinder3;whiteSpace=wrap;html=1;boundedLbl=1;backgroundOutline=1;size=15;fillColor=#f8cecc;strokeColor=#b85450;" parent="_TaFdi0sFe0lA9Lu7QkW-10" vertex="1">
          <mxGeometry x="40" y="40" width="80" height="80" as="geometry" />
        </mxCell>
        <mxCell id="QHXtvjfyBvFeIwCfhDwU-2" value="Techfile" style="shape=cylinder3;whiteSpace=wrap;html=1;boundedLbl=1;backgroundOutline=1;size=15;fillColor=#f8cecc;strokeColor=#b85450;" parent="_TaFdi0sFe0lA9Lu7QkW-10" vertex="1">
          <mxGeometry x="40" y="120" width="80" height="80" as="geometry" />
        </mxCell>
        <mxCell id="QHXtvjfyBvFeIwCfhDwU-3" value="lib.db" style="shape=cylinder3;whiteSpace=wrap;html=1;boundedLbl=1;backgroundOutline=1;size=15;fillColor=#f8cecc;strokeColor=#b85450;" parent="_TaFdi0sFe0lA9Lu7QkW-10" vertex="1">
          <mxGeometry x="160" y="80" width="80" height="80" as="geometry" />
        </mxCell>
        <mxCell id="QHXtvjfyBvFeIwCfhDwU-4" style="edgeStyle=orthogonalEdgeStyle;rounded=0;orthogonalLoop=1;jettySize=auto;html=1;" parent="_TaFdi0sFe0lA9Lu7QkW-10" source="QHXtvjfyBvFeIwCfhDwU-1" target="QHXtvjfyBvFeIwCfhDwU-3" edge="1">
          <mxGeometry relative="1" as="geometry" />
        </mxCell>
        <mxCell id="QHXtvjfyBvFeIwCfhDwU-5" style="edgeStyle=orthogonalEdgeStyle;rounded=0;orthogonalLoop=1;jettySize=auto;html=1;" parent="_TaFdi0sFe0lA9Lu7QkW-10" source="QHXtvjfyBvFeIwCfhDwU-2" target="QHXtvjfyBvFeIwCfhDwU-3" edge="1">
          <mxGeometry relative="1" as="geometry" />
        </mxCell>
        <mxCell id="QHXtvjfyBvFeIwCfhDwU-6" value="FLoorplan DEF" style="shape=cylinder3;whiteSpace=wrap;html=1;boundedLbl=1;backgroundOutline=1;size=15;fillColor=#f8cecc;strokeColor=#b85450;" parent="_TaFdi0sFe0lA9Lu7QkW-10" vertex="1">
          <mxGeometry x="260" y="80" width="80" height="80" as="geometry" />
        </mxCell>
        <mxCell id="QHXtvjfyBvFeIwCfhDwU-7" value="Netlist" style="shape=cylinder3;whiteSpace=wrap;html=1;boundedLbl=1;backgroundOutline=1;size=15;fillColor=#f8cecc;strokeColor=#b85450;" parent="_TaFdi0sFe0lA9Lu7QkW-10" vertex="1">
          <mxGeometry x="160" y="180" width="80" height="80" as="geometry" />
        </mxCell>
        <mxCell id="QHXtvjfyBvFeIwCfhDwU-8" value="SDC" style="shape=cylinder3;whiteSpace=wrap;html=1;boundedLbl=1;backgroundOutline=1;size=15;fillColor=#f8cecc;strokeColor=#b85450;" parent="_TaFdi0sFe0lA9Lu7QkW-10" vertex="1">
          <mxGeometry x="160" y="280" width="80" height="80" as="geometry" />
        </mxCell>
        <mxCell id="QHXtvjfyBvFeIwCfhDwU-9" value="UPF" style="shape=cylinder3;whiteSpace=wrap;html=1;boundedLbl=1;backgroundOutline=1;size=15;fillColor=#f8cecc;strokeColor=#b85450;" parent="_TaFdi0sFe0lA9Lu7QkW-10" vertex="1">
          <mxGeometry x="260" y="180" width="80" height="80" as="geometry" />
        </mxCell>
        <mxCell id="QHXtvjfyBvFeIwCfhDwU-10" value="Liberty" style="shape=cylinder3;whiteSpace=wrap;html=1;boundedLbl=1;backgroundOutline=1;size=15;fillColor=#f8cecc;strokeColor=#b85450;" parent="_TaFdi0sFe0lA9Lu7QkW-10" vertex="1">
          <mxGeometry x="260" y="280" width="80" height="80" as="geometry" />
        </mxCell>
        <mxCell id="QHXtvjfyBvFeIwCfhDwU-11" value="Tlus" style="shape=cylinder3;whiteSpace=wrap;html=1;boundedLbl=1;backgroundOutline=1;size=15;fillColor=#f8cecc;strokeColor=#b85450;" parent="_TaFdi0sFe0lA9Lu7QkW-10" vertex="1">
          <mxGeometry x="160" y="380" width="80" height="80" as="geometry" />
        </mxCell>
        <mxCell id="QHXtvjfyBvFeIwCfhDwU-12" value="Scan DEF" style="shape=cylinder3;whiteSpace=wrap;html=1;boundedLbl=1;backgroundOutline=1;size=15;fillColor=#f8cecc;strokeColor=#b85450;" parent="_TaFdi0sFe0lA9Lu7QkW-10" vertex="1">
          <mxGeometry x="260" y="380" width="80" height="80" as="geometry" />
        </mxCell>
        <mxCell id="_TaFdi0sFe0lA9Lu7QkW-19" style="edgeStyle=orthogonalEdgeStyle;rounded=0;orthogonalLoop=1;jettySize=auto;html=1;" edge="1" parent="1" source="_TaFdi0sFe0lA9Lu7QkW-14" target="_TaFdi0sFe0lA9Lu7QkW-18">
          <mxGeometry relative="1" as="geometry" />
        </mxCell>
        <mxCell id="_TaFdi0sFe0lA9Lu7QkW-14" value="EDA Analyst" style="shape=process;whiteSpace=wrap;html=1;backgroundOutline=1;fillColor=#ffe6cc;strokeColor=#d79b00;" vertex="1" parent="1">
          <mxGeometry x="580" y="660" width="80" height="40" as="geometry" />
        </mxCell>
        <mxCell id="_TaFdi0sFe0lA9Lu7QkW-18" value="" style="image;aspect=fixed;perimeter=ellipsePerimeter;html=1;align=center;shadow=0;dashed=0;fontColor=#4277BB;labelBackgroundColor=default;fontSize=12;spacingTop=3;image=img/lib/ibm/applications/visualization.svg;" vertex="1" parent="1">
          <mxGeometry x="720" y="650" width="60" height="60" as="geometry" />
        </mxCell>
      </root>
    </mxGraphModel>
  </diagram>
</mxfile>
